<?xml version="1.0" encoding="UTF-8" standalone="no"?>
<!-- Created with Inkscape (http://www.inkscape.org/) -->

<svg
   xmlns:dc="http://purl.org/dc/elements/1.1/"
   xmlns:cc="http://creativecommons.org/ns#"
   xmlns:rdf="http://www.w3.org/1999/02/22-rdf-syntax-ns#"
   xmlns:svg="http://www.w3.org/2000/svg"
   xmlns="http://www.w3.org/2000/svg"
   xmlns:xlink="http://www.w3.org/1999/xlink"
   xmlns:sodipodi="http://sodipodi.sourceforge.net/DTD/sodipodi-0.dtd"
   xmlns:inkscape="http://www.inkscape.org/namespaces/inkscape"
   width="310.96606"
   height="310.80392"
   id="svg2"
   version="1.1"
   inkscape:version="0.47 r22583"
   sodipodi:docname="cgroups-explorer.svg">
  <defs
     id="defs4">
    <inkscape:perspective
       sodipodi:type="inkscape:persp3d"
       inkscape:vp_x="0 : 526.18109 : 1"
       inkscape:vp_y="0 : 1000 : 0"
       inkscape:vp_z="744.09448 : 526.18109 : 1"
       inkscape:persp3d-origin="372.04724 : 350.78739 : 1"
       id="perspective10" />
    <inkscape:perspective
       id="perspective2839"
       inkscape:persp3d-origin="0.5 : 0.33333333 : 1"
       inkscape:vp_z="1 : 0.5 : 1"
       inkscape:vp_y="0 : 1000 : 0"
       inkscape:vp_x="0 : 0.5 : 1"
       sodipodi:type="inkscape:persp3d" />
    <inkscape:perspective
       id="perspective2861"
       inkscape:persp3d-origin="0.5 : 0.33333333 : 1"
       inkscape:vp_z="1 : 0.5 : 1"
       inkscape:vp_y="0 : 1000 : 0"
       inkscape:vp_x="0 : 0.5 : 1"
       sodipodi:type="inkscape:persp3d" />
    <inkscape:perspective
       id="perspective2883"
       inkscape:persp3d-origin="0.5 : 0.33333333 : 1"
       inkscape:vp_z="1 : 0.5 : 1"
       inkscape:vp_y="0 : 1000 : 0"
       inkscape:vp_x="0 : 0.5 : 1"
       sodipodi:type="inkscape:persp3d" />
    <inkscape:perspective
       id="perspective2905"
       inkscape:persp3d-origin="0.5 : 0.33333333 : 1"
       inkscape:vp_z="1 : 0.5 : 1"
       inkscape:vp_y="0 : 1000 : 0"
       inkscape:vp_x="0 : 0.5 : 1"
       sodipodi:type="inkscape:persp3d" />
  </defs>
  <sodipodi:namedview
     id="base"
     pagecolor="#ffffff"
     bordercolor="#666666"
     borderopacity="1.0"
     inkscape:pageopacity="0.0"
     inkscape:pageshadow="2"
     inkscape:zoom="1.4"
     inkscape:cx="118.86333"
     inkscape:cy="246.72847"
     inkscape:document-units="px"
     inkscape:current-layer="layer1"
     showgrid="false"
     inkscape:window-width="1185"
     inkscape:window-height="1165"
     inkscape:window-x="0"
     inkscape:window-y="47"
     inkscape:window-maximized="0"
     inkscape:showpageshadow="false"
     borderlayer="false"
     showborder="true" />
  <metadata
     id="metadata7">
    <rdf:RDF>
      <cc:Work
         rdf:about="">
        <dc:format>image/svg+xml</dc:format>
        <dc:type
           rdf:resource="http://purl.org/dc/dcmitype/StillImage" />
      </cc:Work>
    </rdf:RDF>
  </metadata>
  <g
     inkscape:label="Layer 1"
     inkscape:groupmode="layer"
     id="layer1"
     transform="translate(-125.92594,-143.27967)">
    <g
       id="g3718"
       transform="matrix(-0.309017,-0.95105651,0.95105651,-0.309017,84.252631,658.58615)">
      <path
         sodipodi:nodetypes="ccssscc"
         id="path2816"
         d="m 198.70779,215.97509 75.76144,0 c 0,0 -22.76259,-17.42678 -20.82829,-43.94101 1.55988,-21.38196 13.13496,-30.34255 33.49632,-30.51662 18.84191,-0.16107 32.52827,5.10606 34.71506,29.00077 2.55588,27.92783 -23.48883,45.70238 -23.48883,45.70238 l 66.00932,0"
         style="fill:none;stroke:#000000;stroke-width:2;stroke-linecap:butt;stroke-linejoin:miter;stroke-miterlimit:4;stroke-opacity:1;stroke-dasharray:none" />
      <use
         height="1052.3622"
         width="744.09448"
         transform="matrix(0,1,-1,0,579.98615,17.410624)"
         id="use2919"
         xlink:href="#path2816"
         y="0"
         x="0" />
      <use
         height="1052.3622"
         width="744.09448"
         transform="matrix(-1,0,0,-1,562.57552,597.39676)"
         id="use2921"
         xlink:href="#path2816"
         y="0"
         x="0" />
      <use
         height="1052.3622"
         width="744.09448"
         transform="matrix(0,-1,1,0,-17.158078,579.73361)"
         id="use2923"
         xlink:href="#path2816"
         y="0"
         x="0" />
    </g>
    <path
       style="fill:#ff0000;stroke-width:2;stroke-miterlimit:4;stroke-dasharray:none"
       d="m 300.26877,450.57106 c -2.7874,-0.85528 -7.52138,-3.97134 -9.81637,-6.46146 -2.89088,-3.13667 -7.35551,-11.94437 -8.8915,-17.54088 -3.44456,-12.55063 -0.20358,-27.54159 9.09798,-42.08227 1.39466,-2.18021 2.42847,-4.06708 2.29735,-4.19305 -0.13112,-0.12596 -14.50606,4.40982 -31.9443,10.07951 -17.43824,5.66969 -31.79739,10.21704 -31.90922,10.10522 -0.11183,-0.11183 -5.41307,-16.27274 -11.78053,-35.91315 -6.36746,-19.6404 -11.7396,-35.99104 -11.93807,-36.33475 -0.19847,-0.34371 -1.84387,2.23928 -3.65643,5.73999 -4.27138,8.24957 -7.58627,12.69238 -13.67869,18.33303 -6.06538,5.61562 -13.20171,9.25273 -21.35983,10.8863 -15.29914,3.06348 -25.60986,-1.72862 -32.10438,-14.92109 -5.62039,-11.41682 -7.47779,-23.32396 -4.8356,-30.99919 1.93354,-5.61667 6.46616,-10.17794 13.96022,-14.04847 8.42454,-4.3511 14.30627,-5.70344 22.57986,-5.19157 9.83832,0.60866 19.6467,3.99785 28.92857,9.996 2.16071,1.3963 4.02736,2.25967 4.14809,1.91862 0.12074,-0.34106 -4.33365,-14.64615 -9.89865,-31.78908 -5.56499,-17.14294 -9.93372,-31.35343 -9.70829,-31.57886 0.22543,-0.22543 16.53162,-5.65662 36.23598,-12.06931 19.70436,-6.4127 35.99693,-11.83027 36.20571,-12.03905 0.20879,-0.20879 -1.49395,-1.20818 -3.78385,-2.22089 -11.83456,-5.2338 -22.62999,-14.9799 -27.47243,-24.80207 -3.65237,-7.40832 -5.27526,-14.83252 -4.77353,-21.83749 0.93048,-12.99106 10.16795,-21.62727 28.09086,-26.26244 12.52623,-3.2395 20.82704,-1.38668 27.61585,6.16411 6.9589,7.73997 10.98177,19.55404 10.30725,30.26956 -0.59835,9.50569 -4.6912,20.8639 -10.6269,29.49115 -1.20565,1.75234 -2.02899,3.34915 -1.82966,3.54848 0.19933,0.19933 14.61424,-4.27323 32.03313,-9.93902 17.4189,-5.66579 31.75932,-10.23609 31.8676,-10.15622 0.10827,0.0799 5.49563,16.47971 11.97191,36.44408 6.47628,19.96437 11.90471,36.42852 12.06318,36.58698 0.15847,0.15847 1.55261,-2.3896 3.09809,-5.66239 7.27625,-15.40857 19.98463,-26.40489 34.16096,-29.55882 6.89746,-1.53454 15.69799,-1.1282 20.36931,0.94049 10.07324,4.46093 18.79498,21.24074 18.83626,36.23924 0.0155,5.61902 -0.23471,6.94258 -1.98669,10.51031 -2.55782,5.20873 -7.16036,9.2944 -14.42418,12.80432 -7.43071,3.59056 -14.83612,5.1682 -21.52285,4.58522 -9.51324,-0.82942 -19.57696,-4.36351 -27.96272,-9.8197 -2.46706,-1.6052 -4.64985,-2.75426 -4.85064,-2.55347 -0.20078,0.20079 4.14808,14.23833 9.66415,31.19455 5.51606,16.95621 10.02884,31.21985 10.0284,31.69698 -4.8e-4,0.51484 -14.80693,5.65867 -36.42214,12.65322 -20.03173,6.48214 -36.42422,11.9872 -36.42776,12.23347 -0.004,0.24626 1.68106,1.17215 3.74356,2.05754 9.80681,4.20985 21.73706,14.2469 26.40641,22.21602 3.82191,6.52278 5.80644,13.87004 5.86325,21.70725 0.0457,6.31097 -0.17036,7.61674 -1.8555,11.21179 -3.5228,7.51545 -9.66077,12.24281 -21.27462,16.38536 -4.84909,1.72962 -7.57215,2.23373 -13.24668,2.45227 -3.92857,0.1513 -8.24493,-0.0631 -9.59192,-0.47637 l 0,0 z"
       id="path3724" />
    <path
       style="fill:#0000ff;stroke-width:2;stroke-miterlimit:4;stroke-dasharray:none"
       d="m 172.00619,305.77028 c -4.76355,-2.35603 -8.85535,-6.87059 -12.12967,-13.38288 -4.20652,-8.36634 -5.27046,-13.17259 -4.82845,-21.81194 0.51623,-10.09021 3.18151,-17.59583 10.95385,-30.84675 0.73402,-1.25143 1.1708,-2.4391 0.97062,-2.63928 -0.20019,-0.20019 -14.49676,4.10324 -31.77016,9.56318 -17.2734,5.45992 -31.60939,9.70117 -31.85776,9.425 -0.24836,-0.27619 -0.79327,-1.62715 -1.2109,-3.00215 -0.41763,-1.375 -5.645126,-17.42493 -11.616654,-35.6665 -12.400943,-37.88184 -10.49485,-35.165 -16.759007,-23.88732 -4.876568,8.77954 -14.246113,18.20122 -21.751872,21.87292 -12.978215,6.34872 -25.959033,6.44737 -34.339169,0.26094 -6.251707,-4.61517 -11.8645491,-15.70882 -13.891982,-27.45717 -2.3337183,-13.52318 2.0875762,-21.60939 15.481443,-28.31438 7.918647,-3.96409 12.66447,-4.95572 21.321137,-4.45501 9.635438,0.55732 16.677648,2.95261 29.057565,9.88342 1.642375,0.91948 3.213642,1.44427 3.491706,1.16621 0.278057,-0.27806 -2.797083,-11.04144 -6.833653,-23.91863 C 54.612301,105.29625 54.166841,103.73752 55.097876,103.38575 55.558161,103.21183 71.664823,97.827113 90.890459,91.419692 110.11609,85.01227 125.9497,79.459192 126.07626,79.07952 126.20282,78.699849 124.13347,77.321085 121.47771,76.015613 110.24906,70.496012 99.648966,60.544775 95.245094,51.388743 89.092959,38.597925 89.174637,26.000439 95.463594,17.68856 103.05015,7.6616943 124.90228,0.36386085 136.1515,4.1002501 c 9.30789,3.0915861 17.46502,15.2379899 19.28978,28.7235139 1.32991,9.828394 -1.78861,22.374083 -8.41605,33.85743 -2.05751,3.565046 -3.57594,6.646883 -3.3743,6.848526 0.46709,0.467093 11.35636,-2.804526 40.49811,-12.16742 l 23.21429,-7.458469 12.00019,36.391489 c 6.60011,20.01531 12.29603,36.20865 12.6576,35.98519 0.36158,-0.22347 1.95281,-2.88423 3.53608,-5.91282 10.31809,-19.73716 25.96047,-30.08822 44.26853,-29.29387 9.63585,0.418079 14.13565,3.005993 19.62611,11.28735 5.75415,8.67907 8.65075,18.62068 8.15098,27.97561 -0.49963,9.3524 -5.22089,15.5485 -15.80942,20.748 -15.58099,7.65105 -30.14766,6.11725 -49.93245,-5.25765 -2.24059,-1.28819 -4.23797,-2.178 -4.43861,-1.97735 -0.43212,0.43211 1.85609,8.06523 11.73724,39.15365 6.85917,21.58057 7.27076,23.20425 6.09919,24.06092 -0.69098,0.50526 -16.9732,6.16267 -36.1827,12.57203 -19.20951,6.40935 -34.92652,11.84965 -34.9267,12.08955 -1.8e-4,0.23992 2.0086,1.4944 4.46396,2.78774 12.12156,6.38496 22.25834,15.64051 26.62389,24.30934 3.22317,6.40035 4.6024,12.38612 4.61555,20.03122 0.009,5.42859 -0.24169,6.6407 -2.17767,10.51495 -2.69517,5.39351 -6.81508,9.11898 -13.91085,12.57903 -11.17013,5.44679 -25.08676,7.12165 -31.75806,3.82207 l 0,0 z"
       id="path2822"
       transform="translate(125.92594,143.27967)" />
    <path
       style="fill:#0000ff;stroke-width:2;stroke-miterlimit:4;stroke-dasharray:none"
       d="m 175.57762,306.38819 c -6.70308,-1.82798 -11.18986,-6.22457 -15.77265,-15.45559 -3.15926,-6.36362 -4.20891,-10.75698 -4.21888,-17.65827 -0.013,-9.02109 1.77629,-15.71877 6.91798,-25.89511 4.50745,-8.92107 5.2798,-11.17839 3.60926,-10.54855 -0.49107,0.18515 -2.82143,0.88882 -5.17857,1.56372 -2.35714,0.67489 -15.18509,4.59119 -28.50654,8.70289 -13.32146,4.11169 -25.3443,7.54063 -26.71744,7.61985 l -2.49661,0.14404 -10.822476,-32.85714 C 86.43933,203.9326 81.174087,188.42367 80.691144,187.53974 c -1.177771,-2.15567 -2.681678,-2.0259 -4.13885,0.35714 -11.093816,18.14268 -19.358778,25.8836 -31.8484,29.82908 -6.18296,1.95319 -14.402274,2.37312 -19.483421,0.99541 C 15.355606,216.0466 7.7703202,205.11087 4.4649142,188.79802 1.7672516,175.48451 6.28682,166.99957 19.600164,160.38342 c 8.278252,-4.11393 11.152704,-4.71171 20.462722,-4.25547 9.345432,0.45796 14.01484,1.80476 24.251328,6.99476 6.643412,3.36828 9.120545,4.17605 9.120545,2.9741 0,-1.07696 -2.863,-10.84739 -9.886528,-33.73929 -3.916726,-12.76585 -7.438282,-24.38364 -7.825681,-25.81731 l -0.70436,-2.60666 30.10114,-10.17163 c 33.52829,-11.329707 41.17257,-14.109128 41.17257,-14.970143 0,-0.322957 -2.37645,-1.891464 -5.28099,-3.485578 C 101.44154,64.565908 90.49598,48.274587 91.45273,31.311927 c 0.526107,-9.327693 4.568136,-15.497398 13.63396,-20.810735 7.77778,-4.5584271 14.0622,-6.2866875 22.99093,-6.3226558 7.30364,-0.029422 8.09117,0.1059276 11.17935,1.9213451 7.18905,4.2261467 13.07925,13.7716067 15.29177,24.7812937 2.05722,10.236898 -0.22054,20.826469 -7.4827,34.78796 -1.9972,3.839625 -3.63128,7.27329 -3.63128,7.630365 0,1.142179 4.57597,-0.130801 34.19878,-9.513678 15.95853,-5.054787 29.21641,-8.969986 29.46196,-8.700443 0.24555,0.269542 4.54629,12.865077 9.55719,27.990077 9.53222,28.772194 14.75059,43.576474 15.3535,43.557214 0.19643,-0.006 2.21852,-3.18628 4.49353,-7.06666 5.73138,-9.77575 11.23963,-16.09671 17.91155,-20.554297 8.23257,-5.500271 13.24658,-7.007686 23.3092,-7.007686 5.00396,0 9.26055,0.370408 10.89137,0.947758 5.5385,1.960778 12.76019,11.541795 16.24502,21.552245 2.28213,6.55559 2.77835,17.02328 1.05321,22.2172 -1.68962,5.08695 -6.93525,10.2183 -13.97063,13.66628 -14.52392,7.11802 -26.77457,6.48309 -44.73755,-2.3187 -4.80308,-2.35349 -9.09686,-4.27907 -9.54172,-4.27907 -1.09503,0 -1.1343,-0.14359 8.59485,31.42857 4.66085,15.125 8.66255,28.34918 8.89267,29.38707 0.40385,1.82153 0.17671,1.97548 -6.54013,4.43261 -6.07978,2.22409 -43.16261,15.01992 -58.9228,20.33195 -3.04464,1.02621 -5.53572,2.08578 -5.53572,2.3546 0,0.26882 2.49108,2.01694 5.53572,3.88472 9.00511,5.5243 15.04138,10.36268 19.56266,15.68048 7.1149,8.36833 9.90162,16.05639 9.90162,27.31667 0,5.73611 -0.25455,7.16173 -1.83602,10.28262 -4.5147,8.90933 -16.21,15.67214 -30.66398,17.73147 -6.17852,0.88028 -7.05941,0.8618 -11.07142,-0.23231 z"
       id="path2824"
       transform="translate(125.92594,143.27967)" />
  </g>
</svg>
